<svg enable-background="new 0 0 512 512" viewBox="0 0 512 512" xmlns="http://www.w3.org/2000/svg"><path d="m441.223 221.519s.32.238.919.685c.654.491 1.349.998 2.393 1.736 2.119 1.494 5.309 3.529 9.431 6.102 2.055 1.295 4.338 2.741 6.754 4.428 2.412 1.687 4.96 3.624 7.444 5.903 2.479 2.286 4.865 4.94 6.925 7.877 2.075 2.931 3.772 6.156 5.093 9.443 1.325 3.291 2.278 6.649 2.968 9.945.157.824.314 1.645.47 2.462.123.816.245 1.628.367 2.435.204 1.511.405 3.003.603 4.471.092.758.208 1.454.328 2.134.116.688.232 1.37.346 2.045.2 1.353.542 2.679.795 3.974.566 2.581 1.238 4.973 1.924 7.159.734 2.155 1.466 4.117 2.254 5.764.748 1.681 1.559 3.023 2.238 4.113.705 1.062 1.317 1.82 1.741 2.289.438.463.611.604.547.563.916.581 1.188 1.795.606 2.711-.581.916-1.795 1.188-2.711.606-.065-.037-.554-.344-1.219-.889-.663-.554-1.55-1.397-2.551-2.541-.964-1.156-2.104-2.592-3.184-4.338-1.129-1.73-2.215-3.758-3.331-6.006-1.06-2.26-2.13-4.745-3.103-7.417-.458-1.346-1.002-2.694-1.425-4.148-.223-.722-.449-1.452-.677-2.189-.234-.743-.46-1.487-.643-2.197-.395-1.458-.796-2.94-1.202-4.441-.186-.698-.374-1.4-.563-2.106-.215-.692-.43-1.387-.647-2.085-.912-2.763-2.025-5.455-3.373-7.946-1.347-2.492-2.916-4.785-4.713-6.788-1.789-2.011-3.766-3.768-5.869-5.309-4.222-3.066-8.902-5.35-13.143-7.406-4.247-2.033-8.014-3.874-10.635-5.312-1.327-.727-2.481-1.391-3.065-1.736-.645-.378-.989-.579-.989-.579-3.843-2.249-5.135-7.187-2.887-11.03 2.249-3.843 7.187-5.135 11.03-2.887.261.157.518.329.754.505zm-333.422-154.749c-.304.54-.451.876-.451.876l.01.013c-4.503 9.935-3.251 22.109-3.251 22.109.195-.04.342-.094.537-.135-.04.195-.089.344-.13.539 0 0 13.486 1.429 23.711-3.847.085-.037.152-.048.244-.091.031-.025.068-.044.106-.075 1.129-.595 2.225-1.282 3.244-2.069 10.553-7.307 15.72-21.03 16.808-24.276.037-.149.084-.285.134-.434.019-.091.101-.331.101-.331l-.012-.033c1.166-4.068 1.105-8.29.876-10.983-.137-1.614-1.604-3.054-3.203-3.173-1.976-.147-4.74-.207-7.48.217l-.01-.014c-.041.012-.064.031-.094.023-2.417.4-5.077 1.138-7.856 2.449-8.952 3.481-14.792 8.508-18.504 12.69-2.035 1.863-3.572 4.121-4.78 6.545z" fill="#d19b61"/><path d="m432.733 387.859c10.535 19.783-4.748 58.06-9.826 69.633-.913 2.081-2.765 3.395-4.795 3.395h-12.807c-3.753 0-6.348-4.303-5.018-8.33 5.355-16.219 16.53-39.585 16.53-51.489 0-10.704-22.85-33.436-37.306-67.885-.554 24.888-1.857 49.166-2.076 62.504-.369 22.41-10.396 50.232-15.474 61.805-.913 2.081-2.765 3.395-4.795 3.395h-12.807c-3.753 0-6.348-4.303-5.018-8.33 5.355-16.219 16.53-39.585 16.53-51.489 0-13.869-12.78-55.516-38.37-104.111-19.134-3.175-39.051.178-62.412 3.968-9.809 25.739-18.989 93.552-16.668 104 2.058 9.262 8.656 34.411 12.006 47.083 1.004 3.798-1.861 7.512-5.79 7.512h-15.317c-3.533 0-6.272-3.038-5.959-6.557 1.039-11.693-.639-32.525-1.308-35.922-1.884-9.57-5.784-26.946-3.23-38.714 2.243-10.336 4.78-27.539-12.284-60.617-8.845 24.22-16.054 77.246-13.839 87.215 2.058 9.262 8.656 34.411 12.006 47.083 1.004 3.798-1.861 7.512-5.79 7.512h-15.317c-3.533 0-6.272-3.038-5.959-6.557 1.039-11.693-.639-32.525-1.308-35.922-1.884-9.57-5.784-26.946-3.23-38.714 2.356-10.859 3.626-33.631-17.094-72.106-65.275-11.019-10.956-157.771-60.066-169.579-21.191 1.607-58.327-2.586-73.469-2.586-23.053 0-17.572-14.347-13.613-22.815 11.714-25.061 38.761-33.46 46.154-33.46 18.574 0 26.536-22.041 49.559-22.041 3.751 0 8.885 1.973 14.432 5.418.526-.251 1.059-.49 1.612-.693 5.025-2.453 12.339-4.877 21.942-4.687 3.069-.154 5.809.176 8.197.727.025.019.054.011.096.015l.004.017c2.694.652 5.227 1.76 6.999 2.648 1.433.719 2.241 2.609 1.754 4.154-.814 2.578-2.365 6.505-4.993 9.822l-.001.035s-.167.19-.219.267c-.103.119-.198.227-.29.35-1.355 1.563-5.556 6.092-11.426 10.039 6.457 9.157 11.099 19.787 11.536 30.698.007-.006.014-.012.021-.018.234 1.484.481 3.167.743 5.008 31.243 206.452 70.952-46.342 152.005-46.342 76.21 0 78.292 57.505 104.095 88.801 21.032 25.509 47.596 57.602 47.596 93.736 0 14.291-10.483 31.746-28.881 48.848-12.815 34.954-6.78 65.027 2.938 83.276zm56.28-89.022c-2.505 1.343-3.447 4.462-2.104 6.966l.032.06s.073.136.209.391c.072.124.16.277.264.457l.078.138.014.096c.008.066.022.131.037.198.032.139.053.265.112.427.091.238.187.496.302.758.229.503.465 1.198.764 1.856.255.729.601 1.454.894 2.294.33.811.648 1.684.984 2.584.347.894.656 1.841 1.006 2.786.293.963.683 1.918.942 2.904.358.969.572 1.959.88 2.926.294.972.499 1.929.814 2.869.21.936.484 1.856.729 2.742.19.88.435 1.737.656 2.546.161.798.357 1.557.545 2.25.197.694.284 1.297.432 1.821.238 1.036.463 1.69.463 1.69l.068.201c.093.268.248.519.465.73.747.728 1.942.714 2.671-.033 0 0 .489-.502 1.191-1.487.345-.493.826-1.098 1.191-1.84.379-.739.792-1.596 1.189-2.56.359-.963.657-2.033.955-3.187.252-1.149.416-2.378.554-3.662.041-.636.052-1.284.061-1.943.017-.66.025-1.332-.048-1.992-.083-1.334-.25-2.685-.498-4.011-.235-1.335-.568-2.639-.942-3.913-.383-1.269-.832-2.494-1.32-3.658-.26-.575-.516-1.141-.767-1.695-.268-.546-.568-1.068-.841-1.58-.543-1.02-1.189-1.951-1.755-2.798-.644-.849-1.181-1.594-1.808-2.257-.294-.332-.582-.632-.845-.908-.321-.334-.663-.653-.952-.922-.148-.133-.289-.26-.421-.378-.067-.057-.132-.113-.195-.167l-.138-.089c-.175-.111-.323-.205-.444-.282-.248-.146-.38-.224-.38-.224-1.494-.878-3.404-.983-5.044-.104z" fill="#af773f"/><path d="m75.73 83.962c3.431-.249 6.414 2.329 6.663 5.76l.781 10.741c.249 3.431-2.329 6.414-5.76 6.663-3.431.249-6.414-2.329-6.663-5.76l-.781-10.741c-.249-3.43 2.33-6.413 5.76-6.663zm-58.525 24.877c-1.686.123-2.954 1.589-2.832 3.276l.384 5.28c.123 1.686 1.589 2.954 3.276 2.832 1.686-.123 2.954-1.589 2.832-3.276l-.384-5.28c-.123-1.687-1.59-2.955-3.276-2.832zm184.464 331.63h-23.734c.083 4.512.021 8.929-.296 12.494-.313 3.519 2.426 6.557 5.959 6.557h15.317c3.929 0 6.794-3.714 5.79-7.512-.846-3.2-1.901-7.203-3.036-11.539zm45.721 0h-23.734c.083 4.512.021 8.928-.296 12.494-.313 3.519 2.426 6.557 5.959 6.557h15.317c3.929 0 6.794-3.714 5.79-7.512-.846-3.2-1.901-7.203-3.036-11.539zm157.306 0c-1.638 4.253-3.179 8.362-4.409 12.088-1.33 4.027 1.266 8.33 5.018 8.33h12.807c2.03 0 3.882-1.315 4.795-3.395 1.567-3.571 4.103-9.694 6.554-17.022h-24.765zm-60.946 0c-1.638 4.254-3.179 8.362-4.409 12.088-1.33 4.027 1.266 8.33 5.018 8.33h12.807c2.03 0 3.882-1.315 4.795-3.395 1.762-4.016 4.121-9.997 6.465-17.022h-24.676z" fill="#2b3b47"/></svg>